ffmpeg started on 2016-12-12 at 11:25:47
Report written to "Output/theora/results/ffmpeg/crowd_run_2160p5015000k.log"
Command line:
Tools/ffmpeg/ffmpeg -benchmark -y -i Input/y4m/crowd_run_2160p50.y4m -c:v libtheora -b:v 15000k -an Output/theora/encoded/crowd_run_2160p5015000k.mkv
ffmpeg version N-82227-gdb23fde Copyright (c) 2000-2016 the FFmpeg developers
  built with gcc 5.4.0 (Ubuntu 5.4.0-6ubuntu1~16.04.2) 20160609
  configuration: --prefix=/home/jaroslav/ffmpeg_build --pkg-config-flags=--static --extra-cflags=-I/home/jaroslav/ffmpeg_build/include --extra-ldflags=-L/home/jaroslav/ffmpeg_build/lib --bindir=/home/jaroslav/bin --enable-gpl --enable-libass --enable-libfdk-aac --enable-libfreetype --enable-libmp3lame --enable-libopus --enable-libtheora --enable-libvorbis --enable-libvpx --enable-libx264 --enable-libx265 --enable-nvenc --enable-libmfx --enable-libxvid --enable-libgsm --enable-libopencore-amrnb --enable-version3 --enable-nonfree
  libavutil      55. 35.100 / 55. 35.100
  libavcodec     57. 66.101 / 57. 66.101
  libavformat    57. 57.100 / 57. 57.100
  libavdevice    57.  2.100 / 57.  2.100
  libavfilter     6. 66.100 /  6. 66.100
  libswscale      4.  3.100 /  4.  3.100
  libswresample   2.  4.100 /  2.  4.100
  libpostproc    54.  2.100 / 54.  2.100
Input #0, yuv4mpegpipe, from 'Input/y4m/crowd_run_2160p50.y4m':
  Duration: 00:00:10.00, start: 0.000000, bitrate: 4976642 kb/s
    Stream #0:0: Video: rawvideo (I420 / 0x30323449), yuv420p(progressive), 3840x2160, SAR 1:1 DAR 16:9, 50 fps, 50 tbr, 50 tbn, 50 tbc
Output #0, matroska, to 'Output/theora/encoded/crowd_run_2160p5015000k.mkv':
  Metadata:
    encoder         : Lavf57.57.100
    Stream #0:0: Video: theora (libtheora) (theo / 0x6F656874), yuv420p, 3840x2160 [SAR 1:1 DAR 16:9], q=2-31, 15000 kb/s, 50 fps, 1k tbn, 50 tbc
    Metadata:
      encoder         : Lavc57.66.101 libtheora
Stream mapping:
  Stream #0:0 -> #0:0 (rawvideo (native) -> theora (libtheora))
Press [q] to stop, [?] for help
frame=    3 fps=0.0 q=-0.0 size=       4kB time=00:00:00.04 bitrate= 779.5kbits/s speed=0.0476x    frame=    5 fps=3.2 q=-0.0 size=       4kB time=00:00:00.08 bitrate= 394.6kbits/s speed=0.0525x    frame=    7 fps=3.1 q=-0.0 size=       4kB time=00:00:00.12 bitrate= 264.1kbits/s speed=0.0544x    frame=    9 fps=2.8 q=-0.0 size=       4kB time=00:00:00.16 bitrate= 198.5kbits/s speed=0.0503x    frame=   11 fps=2.8 q=-0.0 size=       4kB time=00:00:00.20 bitrate= 159.0kbits/s speed=0.0512x    frame=   13 fps=2.6 q=-0.0 size=     513kB time=00:00:00.24 bitrate=17433.8kbits/s speed=0.0483x    frame=   14 fps=1.6 q=-0.0 size=     513kB time=00:00:00.26 bitrate=16097.9kbits/s speed=0.0297x    frame=   15 fps=1.4 q=-0.0 size=     513kB time=00:00:00.28 bitrate=14952.1kbits/s speed=0.0268x    frame=   17 fps=1.5 q=-0.0 size=     513kB time=00:00:00.32 bitrate=13088.9kbits/s speed=0.0287x    frame=   19 fps=1.6 q=-0.0 size=     513kB time=00:00:00.36 bitrate=11638.6kbits/s speed=0.0301x    frame=   21 fps=1.7 q=-0.0 size=     513kB time=00:00:00.40 bitrate=10477.7kbits/s speed=0.0316x    frame=   23 fps=1.7 q=-0.0 size=     513kB time=00:00:00.44 bitrate=9527.3kbits/s speed=0.033x    frame=   25 fps=1.8 q=-0.0 size=    1024kB time=00:00:00.48 bitrate=17436.3kbits/s speed=0.0342x    frame=   27 fps=1.9 q=-0.0 size=    1024kB time=00:00:00.52 bitrate=16097.6kbits/s speed=0.0357x    frame=   29 fps=1.9 q=-0.0 size=    1024kB time=00:00:00.56 bitrate=14949.9kbits/s speed=0.0367x    frame=   31 fps=1.9 q=-0.0 size=    1024kB time=00:00:00.60 bitrate=13954.9kbits/s speed=0.0376x    frame=   33 fps=2.0 q=-0.0 size=    1024kB time=00:00:00.64 bitrate=13084.0kbits/s speed=0.0384x    frame=   35 fps=2.0 q=-0.0 size=    1024kB time=00:00:00.68 bitrate=12315.5kbits/s speed=0.0392x    frame=   37 fps=2.0 q=-0.0 size=    1528kB time=00:00:00.72 bitrate=17363.1kbits/s speed=0.0399x    frame=   39 fps=2.1 q=-0.0 size=    1528kB time=00:00:00.76 bitrate=16450.5kbits/s speed=0.0409x    frame=   41 fps=2.1 q=-0.0 size=    1528kB time=00:00:00.80 bitrate=15629.0kbits/s speed=0.0415x    frame=   43 fps=2.2 q=-0.0 size=    1528kB time=00:00:00.84 bitrate=14885.6kbits/s speed=0.0421x    frame=   45 fps=2.2 q=-0.0 size=    1528kB time=00:00:00.88 bitrate=14209.8kbits/s speed=0.0426x    frame=   47 fps=2.2 q=-0.0 size=    1528kB time=00:00:00.92 bitrate=13592.6kbits/s speed=0.0431x    frame=   49 fps=2.2 q=-0.0 size=    2058kB time=00:00:00.96 bitrate=17546.1kbits/s speed=0.0435x    frame=   51 fps=2.3 q=-0.0 size=    2058kB time=00:00:01.00 bitrate=16845.0kbits/s speed=0.0443x    frame=   53 fps=2.3 q=-0.0 size=    2058kB time=00:00:01.04 bitrate=16197.7kbits/s speed=0.0447x    frame=   55 fps=2.3 q=-0.0 size=    2058kB time=00:00:01.08 bitrate=15598.4kbits/s speed=0.045x    frame=   56 fps=2.3 q=-0.0 size=    2058kB time=00:00:01.10 bitrate=15315.0kbits/s speed=0.0445x    frame=   58 fps=2.3 q=-0.0 size=    2058kB time=00:00:01.14 bitrate=14778.1kbits/s speed=0.0443x    frame=   60 fps=2.3 q=-0.0 size=    2058kB time=00:00:01.18 bitrate=14277.6kbits/s speed=0.0447x    frame=   62 fps=2.3 q=-0.0 size=    2590kB time=00:00:01.22 bitrate=17378.6kbits/s speed=0.0452x    frame=   64 fps=2.3 q=-0.0 size=    2590kB time=00:00:01.26 bitrate=16827.4kbits/s speed=0.0456x    frame=   66 fps=2.3 q=-0.0 size=    2590kB time=00:00:01.30 bitrate=16310.0kbits/s speed=0.0459x    frame=   68 fps=2.3 q=-0.0 size=    2590kB time=00:00:01.34 bitrate=15823.5kbits/s speed=0.0462x    frame=   70 fps=2.4 q=-0.0 size=    2590kB time=00:00:01.38 bitrate=15365.2kbits/s speed=0.0464x    frame=   72 fps=2.3 q=-0.0 size=    2590kB time=00:00:01.42 bitrate=14932.7kbits/s speed=0.046x    frame=   74 fps=2.4 q=-0.0 size=    3121kB time=00:00:01.46 bitrate=17499.8kbits/s speed=0.0465x    frame=   76 fps=2.4 q=-0.0 size=    3121kB time=00:00:01.50 bitrate=17033.4kbits/s speed=0.0467x    frame=   77 fps=2.3 q=-0.0 size=    3121kB time=00:00:01.52 bitrate=16809.4kbits/s speed=0.0463x    frame=   79 fps=2.4 q=-0.0 size=    3121kB time=00:00:01.56 bitrate=16378.7kbits/s speed=0.0465x    frame=   81 fps=2.4 q=-0.0 size=    3121kB time=00:00:01.60 bitrate=15969.5kbits/s speed=0.0467x    frame=   82 fps=2.3 q=-0.0 size=    3121kB time=00:00:01.62 bitrate=15772.4kbits/s speed=0.0463x    frame=   84 fps=2.4 q=-0.0 size=    3121kB time=00:00:01.66 bitrate=15392.6kbits/s speed=0.0465x    frame=   86 fps=2.4 q=-0.0 size=    3649kB time=00:00:01.70 bitrate=17574.6kbits/s speed=0.0469x    frame=   88 fps=2.4 q=-0.0 size=    3649kB time=00:00:01.74 bitrate=17170.8kbits/s speed=0.0467x    frame=   90 fps=2.4 q=-0.0 size=    3649kB time=00:00:01.78 bitrate=16785.2kbits/s speed=0.0466x    frame=   92 fps=2.4 q=-0.0 size=    3649kB time=00:00:01.82 bitrate=16416.5kbits/s speed=0.0468x    frame=   94 fps=2.4 q=-0.0 size=    3649kB time=00:00:01.86 bitrate=16063.6kbits/s speed=0.047x    frame=   96 fps=2.4 q=-0.0 size=    3649kB time=00:00:01.90 bitrate=15725.6kbits/s speed=0.0472x    frame=   98 fps=2.4 q=-0.0 size=    4161kB time=00:00:01.94 bitrate=17560.0kbits/s speed=0.0474x    frame=  100 fps=2.4 q=-0.0 size=    4161kB time=00:00:01.98 bitrate=17205.4kbits/s speed=0.0476x    frame=  102 fps=2.4 q=-0.0 size=    4161kB time=00:00:02.02 bitrate=16864.9kbits/s speed=0.0478x    frame=  104 fps=2.4 q=-0.0 size=    4161kB time=00:00:02.06 bitrate=16537.6kbits/s speed=0.0479x    frame=  106 fps=2.4 q=-0.0 size=    4161kB time=00:00:02.10 bitrate=16222.7kbits/s speed=0.0481x    frame=  107 fps=2.4 q=-0.0 size=    4161kB time=00:00:02.12 bitrate=16069.8kbits/s speed=0.0478x    frame=  109 fps=2.4 q=-0.0 size=    4660kB time=00:00:02.16 bitrate=17664.9kbits/s speed=0.0476x    frame=  111 fps=2.4 q=-0.0 size=    4660kB time=00:00:02.20 bitrate=17343.9kbits/s speed=0.0479x    frame=  113 fps=2.4 q=-0.0 size=    4660kB time=00:00:02.24 bitrate=17034.3kbits/s speed=0.0481x    frame=  115 fps=2.4 q=-0.0 size=    4660kB time=00:00:02.28 bitrate=16735.6kbits/s speed=0.0482x    frame=  117 fps=2.4 q=-0.0 size=    4660kB time=00:00:02.32 bitrate=16447.2kbits/s speed=0.0484x    frame=  119 fps=2.4 q=-0.0 size=    4660kB time=00:00:02.36 bitrate=16168.5kbits/s speed=0.0485x    frame=  120 fps=2.4 q=-0.0 size=    4660kB time=00:00:02.38 bitrate=16032.7kbits/s speed=0.0481x    frame=  122 fps=2.4 q=-0.0 size=    5154kB time=00:00:02.42 bitrate=17441.0kbits/s speed=0.0484x    frame=  124 fps=2.4 q=-0.0 size=    5154kB time=00:00:02.46 bitrate=17157.5kbits/s speed=0.0486x    frame=  126 fps=2.5 q=-0.0 size=    5154kB time=00:00:02.50 bitrate=16883.1kbits/s speed=0.0487x    frame=  128 fps=2.5 q=-0.0 size=    5154kB time=00:00:02.54 bitrate=16617.3kbits/s speed=0.0488x    frame=  130 fps=2.5 q=-0.0 size=    5154kB time=00:00:02.58 bitrate=16359.8kbits/s speed=0.049x    frame=  132 fps=2.5 q=-0.0 size=    5154kB time=00:00:02.62 bitrate=16110.1kbits/s speed=0.0491x    frame=  134 fps=2.5 q=-0.0 size=    5664kB time=00:00:02.66 bitrate=17437.9kbits/s speed=0.0493x    frame=  136 fps=2.5 q=-0.0 size=    5664kB time=00:00:02.70 bitrate=17179.6kbits/s speed=0.0495x    frame=  138 fps=2.5 q=-0.0 size=    5664kB time=00:00:02.74 bitrate=16928.9kbits/s speed=0.0496x    frame=  140 fps=2.5 q=-0.0 size=    5664kB time=00:00:02.78 bitrate=16685.4kbits/s speed=0.0497x    frame=  142 fps=2.5 q=-0.0 size=    5664kB time=00:00:02.82 bitrate=16448.8kbits/s speed=0.0498x    frame=  144 fps=2.5 q=-0.0 size=    5664kB time=00:00:02.86 bitrate=16218.9kbits/s speed=0.0498x    frame=  146 fps=2.5 q=-0.0 size=    6171kB time=00:00:02.90 bitrate=17427.2kbits/s speed=0.0501x    frame=  148 fps=2.5 q=-0.0 size=    6171kB time=00:00:02.94 bitrate=17190.2kbits/s speed=0.0502x    frame=  150 fps=2.5 q=-0.0 size=    6171kB time=00:00:02.98 bitrate=16959.5kbits/s speed=0.0503x    frame=  152 fps=2.5 q=-0.0 size=    6171kB time=00:00:03.02 bitrate=16734.9kbits/s speed=0.0503x    frame=  154 fps=2.5 q=-0.0 size=    6171kB time=00:00:03.06 bitrate=16516.3kbits/s speed=0.0504x    frame=  156 fps=2.5 q=-0.0 size=    6171kB time=00:00:03.10 bitrate=16303.2kbits/s speed=0.0505x    frame=  158 fps=2.6 q=-0.0 size=    6675kB time=00:00:03.14 bitrate=17408.8kbits/s speed=0.0507x    frame=  160 fps=2.6 q=-0.0 size=    6675kB time=00:00:03.18 bitrate=17189.8kbits/s speed=0.0508x    frame=  162 fps=2.5 q=-0.0 size=    6675kB time=00:00:03.22 bitrate=16976.4kbits/s speed=0.0507x    frame=  164 fps=2.6 q=-0.0 size=    6675kB time=00:00:03.26 bitrate=16768.1kbits/s speed=0.0508x    frame=  166 fps=2.6 q=-0.0 size=    6675kB time=00:00:03.30 bitrate=16564.9kbits/s speed=0.0508x    frame=  168 fps=2.6 q=-0.0 size=    6675kB time=00:00:03.34 bitrate=16366.6kbits/s speed=0.0509x    frame=  170 fps=2.6 q=-0.0 size=    7195kB time=00:00:03.38 bitrate=17434.0kbits/s speed=0.0511x    frame=  172 fps=2.6 q=-0.0 size=    7195kB time=00:00:03.42 bitrate=17230.2kbits/s speed=0.0512x    frame=  174 fps=2.6 q=-0.0 size=    7195kB time=00:00:03.46 bitrate=17031.1kbits/s speed=0.0512x    frame=  176 fps=2.6 q=-0.0 size=    7195kB time=00:00:03.50 bitrate=16836.5kbits/s speed=0.0513x    frame=  178 fps=2.6 q=-0.0 size=    7195kB time=00:00:03.54 bitrate=16646.3kbits/s speed=0.0514x    frame=  180 fps=2.6 q=-0.0 size=    7195kB time=00:00:03.58 bitrate=16460.4kbits/s speed=0.0514x    frame=  182 fps=2.6 q=-0.0 size=    7709kB time=00:00:03.62 bitrate=17440.6kbits/s speed=0.0516x    frame=  184 fps=2.6 q=-0.0 size=    7709kB time=00:00:03.66 bitrate=17250.0kbits/s speed=0.0517x    frame=  186 fps=2.6 q=-0.0 size=    7709kB time=00:00:03.70 bitrate=17063.6kbits/s speed=0.0517x    frame=  188 fps=2.6 q=-0.0 size=    7709kB time=00:00:03.74 bitrate=16881.2kbits/s speed=0.0518x    frame=  190 fps=2.6 q=-0.0 size=    7709kB time=00:00:03.78 bitrate=16702.6kbits/s speed=0.0518x    frame=  192 fps=2.6 q=-0.0 size=    7709kB time=00:00:03.82 bitrate=16527.7kbits/s speed=0.0519x    frame=  194 fps=2.6 q=-0.0 size=    8229kB time=00:00:03.86 bitrate=17459.7kbits/s speed=0.0518x    frame=  196 fps=2.6 q=-0.0 size=    8229kB time=00:00:03.90 bitrate=17280.7kbits/s speed=0.0519x    frame=  198 fps=2.6 q=-0.0 size=    8229kB time=00:00:03.94 bitrate=17105.3kbits/s speed=0.0517x    frame=  200 fps=2.6 q=-0.0 size=    8229kB time=00:00:03.98 bitrate=16933.5kbits/s speed=0.0517x    frame=  202 fps=2.6 q=-0.0 size=    8229kB time=00:00:04.02 bitrate=16765.0kbits/s speed=0.0518x    frame=  204 fps=2.6 q=-0.0 size=    8229kB time=00:00:04.06 bitrate=16599.9kbits/s speed=0.0518x    frame=  206 fps=2.6 q=-0.0 size=    8746kB time=00:00:04.10 bitrate=17469.8kbits/s speed=0.052x    frame=  208 fps=2.6 q=-0.0 size=    8746kB time=00:00:04.14 bitrate=17301.0kbits/s speed=0.052x    frame=  210 fps=2.6 q=-0.0 size=    8746kB time=00:00:04.18 bitrate=17135.5kbits/s speed=0.0521x    frame=  212 fps=2.6 q=-0.0 size=    8746kB time=00:00:04.22 bitrate=16973.1kbits/s speed=0.0521x    frame=  214 fps=2.6 q=-0.0 size=    8746kB time=00:00:04.26 bitrate=16813.8kbits/s speed=0.0522x    frame=  216 fps=2.6 q=-0.0 size=    8746kB time=00:00:04.30 bitrate=16657.4kbits/s speed=0.0522x    frame=  218 fps=2.6 q=-0.0 size=    9286kB time=00:00:04.34 bitrate=17524.3kbits/s speed=0.0524x    frame=  220 fps=2.6 q=-0.0 size=    9286kB time=00:00:04.38 bitrate=17364.3kbits/s speed=0.0524x    frame=  222 fps=2.6 q=-0.0 size=    9286kB time=00:00:04.42 bitrate=17207.2kbits/s speed=0.0524x    frame=  224 fps=2.6 q=-0.0 size=    9286kB time=00:00:04.46 bitrate=17052.9kbits/s speed=0.0525x    frame=  226 fps=2.6 q=-0.0 size=    9286kB time=00:00:04.50 bitrate=16901.4kbits/s speed=0.0523x    frame=  228 fps=2.6 q=-0.0 size=    9286kB time=00:00:04.54 bitrate=16752.5kbits/s speed=0.0523x    frame=  230 fps=2.6 q=-0.0 size=    9835kB time=00:00:04.58 bitrate=17587.5kbits/s speed=0.0524x    frame=  232 fps=2.6 q=-0.0 size=    9835kB time=00:00:04.62 bitrate=17435.3kbits/s speed=0.0525x    frame=  234 fps=2.6 q=-0.0 size=    9835kB time=00:00:04.66 bitrate=17285.7kbits/s speed=0.0525x    frame=  236 fps=2.6 q=-0.0 size=    9835kB time=00:00:04.70 bitrate=17138.6kbits/s speed=0.0525x    frame=  238 fps=2.6 q=-0.0 size=    9835kB time=00:00:04.74 bitrate=16994.0kbits/s speed=0.0526x    frame=  240 fps=2.6 q=-0.0 size=    9835kB time=00:00:04.78 bitrate=16851.8kbits/s speed=0.0526x    frame=  241 fps=2.6 q=-0.0 size=   10400kB time=00:00:04.80 bitrate=17746.1kbits/s speed=0.0524x    frame=  243 fps=2.6 q=-0.0 size=   10400kB time=00:00:04.84 bitrate=17599.5kbits/s speed=0.0526x    frame=  244 fps=2.6 q=-0.0 size=   10400kB time=00:00:04.86 bitrate=17527.1kbits/s speed=0.0523x    frame=  246 fps=2.6 q=-0.0 size=   10400kB time=00:00:04.90 bitrate=17384.0kbits/s speed=0.0524x    frame=  248 fps=2.6 q=-0.0 size=   10400kB time=00:00:04.94 bitrate=17243.3kbits/s speed=0.0524x    frame=  250 fps=2.6 q=-0.0 size=   10400kB time=00:00:04.98 bitrate=17104.8kbits/s speed=0.0524x    frame=  252 fps=2.6 q=-0.0 size=   10400kB time=00:00:05.02 bitrate=16968.5kbits/s speed=0.0525x    frame=  254 fps=2.6 q=-0.0 size=   10932kB time=00:00:05.06 bitrate=17694.3kbits/s speed=0.0524x    frame=  256 fps=2.6 q=-0.0 size=   10932kB time=00:00:05.10 bitrate=17555.6kbits/s speed=0.0524x    frame=  258 fps=2.6 q=-0.0 size=   10932kB time=00:00:05.14 bitrate=17419.0kbits/s speed=0.0525x    frame=  260 fps=2.6 q=-0.0 size=   10932kB time=00:00:05.18 bitrate=17284.5kbits/s speed=0.0525x    frame=  262 fps=2.6 q=-0.0 size=   10932kB time=00:00:05.22 bitrate=17152.1kbits/s speed=0.0526x    frame=  264 fps=2.6 q=-0.0 size=   10932kB time=00:00:05.26 bitrate=17021.6kbits/s speed=0.0526x    frame=  265 fps=2.6 q=-0.0 size=   11416kB time=00:00:05.28 bitrate=17708.9kbits/s speed=0.0524x    frame=  267 fps=2.6 q=-0.0 size=   11416kB time=00:00:05.32 bitrate=17575.7kbits/s speed=0.0526x    frame=  269 fps=2.6 q=-0.0 size=   11416kB time=00:00:05.36 bitrate=17444.6kbits/s speed=0.0526x    frame=  271 fps=2.6 q=-0.0 size=   11416kB time=00:00:05.40 bitrate=17315.4kbits/s speed=0.0526x    frame=  273 fps=2.6 q=-0.0 size=   11416kB time=00:00:05.44 bitrate=17188.1kbits/s speed=0.0527x    frame=  275 fps=2.6 q=-0.0 size=   11416kB time=00:00:05.48 bitrate=17062.7kbits/s speed=0.0527x    frame=  277 fps=2.6 q=-0.0 size=   11828kB time=00:00:05.52 bitrate=17550.5kbits/s speed=0.0527x    frame=  279 fps=2.7 q=-0.0 size=   11828kB time=00:00:05.56 bitrate=17424.3kbits/s speed=0.0529x    frame=  281 fps=2.7 q=-0.0 size=   11828kB time=00:00:05.60 bitrate=17299.8kbits/s speed=0.0529x    frame=  282 fps=2.6 q=-0.0 size=   11828kB time=00:00:05.62 bitrate=17238.3kbits/s speed=0.0527x    frame=  284 fps=2.6 q=-0.0 size=   11828kB time=00:00:05.66 bitrate=17116.5kbits/s speed=0.0528x    frame=  286 fps=2.6 q=-0.0 size=   11828kB time=00:00:05.70 bitrate=16996.4kbits/s speed=0.0528x    frame=  288 fps=2.7 q=-0.0 size=   11828kB time=00:00:05.74 bitrate=16877.9kbits/s speed=0.0528x    frame=  290 fps=2.7 q=-0.0 size=   12300kB time=00:00:05.78 bitrate=17429.1kbits/s speed=0.0529x    frame=  292 fps=2.7 q=-0.0 size=   12300kB time=00:00:05.82 bitrate=17309.4kbits/s speed=0.053x    frame=  294 fps=2.7 q=-0.0 size=   12300kB time=00:00:05.86 bitrate=17191.2kbits/s speed=0.053x    frame=  296 fps=2.7 q=-0.0 size=   12300kB time=00:00:05.90 bitrate=17074.7kbits/s speed=0.053x    frame=  298 fps=2.7 q=-0.0 size=   12300kB time=00:00:05.94 bitrate=16959.7kbits/s speed=0.0531x    frame=  300 fps=2.7 q=-0.0 size=   12300kB time=00:00:05.98 bitrate=16846.3kbits/s speed=0.0531x    frame=  302 fps=2.7 q=-0.0 size=   12712kB time=00:00:06.02 bitrate=17295.8kbits/s speed=0.053x    frame=  304 fps=2.7 q=-0.0 size=   12712kB time=00:00:06.06 bitrate=17181.7kbits/s speed=0.0531x    frame=  306 fps=2.7 q=-0.0 size=   12712kB time=00:00:06.10 bitrate=17069.0kbits/s speed=0.0531x    frame=  308 fps=2.7 q=-0.0 size=   12712kB time=00:00:06.14 bitrate=16957.8kbits/s speed=0.0531x    frame=  310 fps=2.7 q=-0.0 size=   12712kB time=00:00:06.18 bitrate=16848.1kbits/s speed=0.0532x    frame=  312 fps=2.7 q=-0.0 size=   12712kB time=00:00:06.22 bitrate=16739.8kbits/s speed=0.0532x    frame=  314 fps=2.7 q=-0.0 size=   13151kB time=00:00:06.26 bitrate=17207.4kbits/s speed=0.0533x    frame=  316 fps=2.7 q=-0.0 size=   13151kB time=00:00:06.30 bitrate=17098.2kbits/s speed=0.0533x    frame=  318 fps=2.7 q=-0.0 size=   13151kB time=00:00:06.34 bitrate=16990.3kbits/s speed=0.0533x    frame=  320 fps=2.7 q=-0.0 size=   13151kB time=00:00:06.38 bitrate=16883.8kbits/s speed=0.0533x    frame=  322 fps=2.7 q=-0.0 size=   13151kB time=00:00:06.42 bitrate=16778.7kbits/s speed=0.0533x    frame=  324 fps=2.7 q=-0.0 size=   13151kB time=00:00:06.46 bitrate=16674.8kbits/s speed=0.0534x    frame=  326 fps=2.7 q=-0.0 size=   13591kB time=00:00:06.50 bitrate=17126.3kbits/s speed=0.0535x    frame=  328 fps=2.7 q=-0.0 size=   13591kB time=00:00:06.54 bitrate=17021.5kbits/s speed=0.0535x    frame=  330 fps=2.7 q=-0.0 size=   13591kB time=00:00:06.58 bitrate=16918.1kbits/s speed=0.0535x    frame=  332 fps=2.7 q=-0.0 size=   13591kB time=00:00:06.62 bitrate=16815.9kbits/s speed=0.0535x    frame=  334 fps=2.7 q=-0.0 size=   13591kB time=00:00:06.66 bitrate=16714.9kbits/s speed=0.0535x    frame=  336 fps=2.7 q=-0.0 size=   13591kB time=00:00:06.70 bitrate=16615.1kbits/s speed=0.0536x    frame=  338 fps=2.7 q=-0.0 size=   14060kB time=00:00:06.74 bitrate=17086.6kbits/s speed=0.0537x    frame=  340 fps=2.7 q=-0.0 size=   14060kB time=00:00:06.78 bitrate=16985.8kbits/s speed=0.0537x    frame=  342 fps=2.7 q=-0.0 size=   14060kB time=00:00:06.82 bitrate=16886.2kbits/s speed=0.0537x    frame=  344 fps=2.7 q=-0.0 size=   14060kB time=00:00:06.86 bitrate=16787.7kbits/s speed=0.0537x    frame=  346 fps=2.7 q=-0.0 size=   14060kB time=00:00:06.90 bitrate=16690.4kbits/s speed=0.0538x    frame=  348 fps=2.7 q=-0.0 size=   14060kB time=00:00:06.94 bitrate=16594.3kbits/s speed=0.0538x    frame=  350 fps=2.7 q=-0.0 size=   14499kB time=00:00:06.98 bitrate=17014.4kbits/s speed=0.0537x    frame=  352 fps=2.7 q=-0.0 size=   14499kB time=00:00:07.02 bitrate=16917.5kbits/s speed=0.0538x    frame=  354 fps=2.7 q=-0.0 size=   14499kB time=00:00:07.06 bitrate=16821.6kbits/s speed=0.0538x    frame=  356 fps=2.7 q=-0.0 size=   14499kB time=00:00:07.10 bitrate=16726.9kbits/s speed=0.0538x    frame=  358 fps=2.7 q=-0.0 size=   14499kB time=00:00:07.14 bitrate=16633.2kbits/s speed=0.0538x    frame=  360 fps=2.7 q=-0.0 size=   14499kB time=00:00:07.18 bitrate=16540.5kbits/s speed=0.0538x    frame=  362 fps=2.7 q=-0.0 size=   14932kB time=00:00:07.22 bitrate=16940.4kbits/s speed=0.0539x    frame=  364 fps=2.7 q=-0.0 size=   14932kB time=00:00:07.26 bitrate=16847.1kbits/s speed=0.054x    frame=  365 fps=2.7 q=-0.0 size=   14932kB time=00:00:07.28 bitrate=16800.8kbits/s speed=0.0538x    frame=  367 fps=2.7 q=-0.0 size=   14932kB time=00:00:07.32 bitrate=16709.0kbits/s speed=0.0538x    frame=  369 fps=2.7 q=-0.0 size=   14932kB time=00:00:07.36 bitrate=16618.2kbits/s speed=0.0539x    frame=  371 fps=2.7 q=-0.0 size=   14932kB time=00:00:07.40 bitrate=16528.4kbits/s speed=0.0539x    frame=  373 fps=2.7 q=-0.0 size=   15349kB time=00:00:07.44 bitrate=16897.6kbits/s speed=0.0539x    frame=  375 fps=2.7 q=-0.0 size=   15349kB time=00:00:07.48 bitrate=16807.3kbits/s speed=0.054x    frame=  377 fps=2.7 q=-0.0 size=   15349kB time=00:00:07.52 bitrate=16717.9kbits/s speed=0.054x    frame=  379 fps=2.7 q=-0.0 size=   15349kB time=00:00:07.56 bitrate=16629.4kbits/s speed=0.054x    frame=  381 fps=2.7 q=-0.0 size=   15349kB time=00:00:07.60 bitrate=16541.9kbits/s speed=0.054x    frame=  383 fps=2.7 q=-0.0 size=   15349kB time=00:00:07.64 bitrate=16455.3kbits/s speed=0.054x    frame=  385 fps=2.7 q=-0.0 size=   15778kB time=00:00:07.68 bitrate=16827.5kbits/s speed=0.054x    frame=  387 fps=2.7 q=-0.0 size=   15778kB time=00:00:07.72 bitrate=16740.3kbits/s speed=0.0541x    frame=  389 fps=2.7 q=-0.0 size=   15778kB time=00:00:07.76 bitrate=16654.1kbits/s speed=0.0541x    frame=  391 fps=2.7 q=-0.0 size=   15778kB time=00:00:07.80 bitrate=16568.7kbits/s speed=0.0542x    frame=  393 fps=2.7 q=-0.0 size=   15778kB time=00:00:07.84 bitrate=16484.1kbits/s speed=0.0542x    frame=  395 fps=2.7 q=-0.0 size=   15778kB time=00:00:07.88 bitrate=16400.5kbits/s speed=0.0542x    frame=  397 fps=2.7 q=-0.0 size=   16225kB time=00:00:07.92 bitrate=16779.7kbits/s speed=0.0542x    frame=  399 fps=2.7 q=-0.0 size=   16225kB time=00:00:07.96 bitrate=16695.4kbits/s speed=0.0543x    frame=  401 fps=2.7 q=-0.0 size=   16225kB time=00:00:08.00 bitrate=16611.9kbits/s speed=0.0543x    frame=  403 fps=2.7 q=-0.0 size=   16225kB time=00:00:08.04 bitrate=16529.3kbits/s speed=0.0543x    frame=  405 fps=2.7 q=-0.0 size=   16225kB time=00:00:08.08 bitrate=16447.4kbits/s speed=0.0543x    frame=  407 fps=2.7 q=-0.0 size=   16225kB time=00:00:08.12 bitrate=16366.4kbits/s speed=0.0543x    frame=  409 fps=2.7 q=-0.0 size=   16697kB time=00:00:08.16 bitrate=16760.3kbits/s speed=0.0543x    frame=  411 fps=2.7 q=-0.0 size=   16697kB time=00:00:08.20 bitrate=16678.6kbits/s speed=0.0543x    frame=  413 fps=2.7 q=-0.0 size=   16697kB time=00:00:08.24 bitrate=16597.6kbits/s speed=0.0543x    frame=  415 fps=2.7 q=-0.0 size=   16697kB time=00:00:08.28 bitrate=16517.4kbits/s speed=0.0543x    frame=  417 fps=2.7 q=-0.0 size=   16697kB time=00:00:08.32 bitrate=16438.0kbits/s speed=0.0543x    frame=  419 fps=2.7 q=-0.0 size=   16697kB time=00:00:08.36 bitrate=16359.4kbits/s speed=0.0544x    frame=  421 fps=2.7 q=-0.0 size=   17098kB time=00:00:08.40 bitrate=16672.7kbits/s speed=0.0544x    frame=  423 fps=2.7 q=-0.0 size=   17098kB time=00:00:08.44 bitrate=16593.7kbits/s speed=0.0544x    frame=  425 fps=2.7 q=-0.0 size=   17098kB time=00:00:08.48 bitrate=16515.4kbits/s speed=0.0544x    frame=  427 fps=2.7 q=-0.0 size=   17098kB time=00:00:08.52 bitrate=16437.9kbits/s speed=0.0544x    frame=  429 fps=2.7 q=-0.0 size=   17098kB time=00:00:08.56 bitrate=16361.1kbits/s speed=0.0544x    frame=  431 fps=2.7 q=-0.0 size=   17098kB time=00:00:08.60 bitrate=16285.0kbits/s speed=0.0545x    frame=  433 fps=2.7 q=-0.0 size=   17566kB time=00:00:08.64 bitrate=16652.8kbits/s speed=0.0545x    frame=  435 fps=2.7 q=-0.0 size=   17566kB time=00:00:08.68 bitrate=16576.1kbits/s speed=0.0545x    frame=  437 fps=2.7 q=-0.0 size=   17566kB time=00:00:08.72 bitrate=16500.0kbits/s speed=0.0545x    frame=  439 fps=2.7 q=-0.0 size=   17566kB time=00:00:08.76 bitrate=16424.7kbits/s speed=0.0545x    frame=  441 fps=2.7 q=-0.0 size=   17566kB time=00:00:08.80 bitrate=16350.0kbits/s speed=0.0545x    frame=  443 fps=2.7 q=-0.0 size=   17566kB time=00:00:08.84 bitrate=16276.1kbits/s speed=0.0546x    frame=  445 fps=2.7 q=-0.0 size=   17982kB time=00:00:08.88 bitrate=16587.0kbits/s speed=0.0544x    frame=  447 fps=2.7 q=-0.0 size=   17982kB time=00:00:08.92 bitrate=16512.6kbits/s speed=0.0545x    frame=  449 fps=2.7 q=-0.0 size=   17982kB time=00:00:08.96 bitrate=16438.9kbits/s speed=0.0545x    frame=  451 fps=2.7 q=-0.0 size=   17982kB time=00:00:09.00 bitrate=16365.9kbits/s speed=0.0545x    frame=  453 fps=2.7 q=-0.0 size=   17982kB time=00:00:09.04 bitrate=16293.5kbits/s speed=0.0545x    frame=  455 fps=2.7 q=-0.0 size=   17982kB time=00:00:09.08 bitrate=16221.7kbits/s speed=0.0545x    frame=  457 fps=2.7 q=-0.0 size=   18459kB time=00:00:09.12 bitrate=16578.8kbits/s speed=0.0545x    frame=  459 fps=2.7 q=-0.0 size=   18459kB time=00:00:09.16 bitrate=16506.4kbits/s speed=0.0546x    frame=  461 fps=2.7 q=-0.0 size=   18459kB time=00:00:09.20 bitrate=16434.6kbits/s speed=0.0546x    frame=  463 fps=2.7 q=-0.0 size=   18459kB time=00:00:09.24 bitrate=16363.5kbits/s speed=0.0546x    frame=  465 fps=2.7 q=-0.0 size=   18459kB time=00:00:09.28 bitrate=16292.9kbits/s speed=0.0546x    frame=  467 fps=2.7 q=-0.0 size=   18459kB time=00:00:09.32 bitrate=16223.0kbits/s speed=0.0546x    frame=  469 fps=2.7 q=-0.0 size=   18859kB time=00:00:09.36 bitrate=16503.5kbits/s speed=0.0546x    frame=  471 fps=2.7 q=-0.0 size=   18859kB time=00:00:09.40 bitrate=16433.3kbits/s speed=0.0547x    frame=  473 fps=2.7 q=-0.0 size=   18859kB time=00:00:09.44 bitrate=16363.7kbits/s speed=0.0547x    frame=  475 fps=2.7 q=-0.0 size=   18859kB time=00:00:09.48 bitrate=16294.7kbits/s speed=0.0547x    frame=  477 fps=2.7 q=-0.0 size=   18859kB time=00:00:09.52 bitrate=16226.2kbits/s speed=0.0547x    frame=  479 fps=2.7 q=-0.0 size=   18859kB time=00:00:09.56 bitrate=16158.3kbits/s speed=0.0547x    frame=  481 fps=2.7 q=-0.0 size=   19338kB time=00:00:09.60 bitrate=16500.3kbits/s speed=0.0547x    frame=  483 fps=2.7 q=-0.0 size=   19338kB time=00:00:09.64 bitrate=16431.8kbits/s speed=0.0548x    frame=  485 fps=2.7 q=-0.0 size=   19338kB time=00:00:09.68 bitrate=16363.9kbits/s speed=0.0548x    frame=  487 fps=2.7 q=-0.0 size=   19338kB time=00:00:09.72 bitrate=16296.6kbits/s speed=0.0548x    frame=  489 fps=2.7 q=-0.0 size=   19338kB time=00:00:09.76 bitrate=16229.8kbits/s speed=0.0547x    frame=  491 fps=2.7 q=-0.0 size=   19338kB time=00:00:09.80 bitrate=16163.6kbits/s speed=0.0548x    frame=  493 fps=2.7 q=-0.0 size=   19766kB time=00:00:09.84 bitrate=16453.8kbits/s speed=0.0548x    frame=  495 fps=2.7 q=-0.0 size=   19766kB time=00:00:09.88 bitrate=16387.1kbits/s speed=0.0548x    frame=  497 fps=2.7 q=-0.0 size=   19766kB time=00:00:09.92 bitrate=16321.1kbits/s speed=0.0548x    frame=  499 fps=2.7 q=-0.0 size=   19766kB time=00:00:09.96 bitrate=16255.5kbits/s speed=0.0548x    frame=  500 fps=2.7 q=-0.0 size=   19766kB time=00:00:09.98 bitrate=16223.0kbits/s speed=0.0547x    frame=  500 fps=2.7 q=-0.0 Lsize=   20070kB time=00:00:09.98 bitrate=16473.0kbits/s speed=0.0547x    
video:20061kB audio:0kB subtitle:0kB other streams:0kB global headers:3kB muxing overhead: 0.046255%
bench: utime=156.244s
bench: maxrss=177272kB
